<?xml version="1.0" encoding="UTF-8"?>
<svg width="24" height="24" viewBox="0 0 24 24" fill="none" xmlns="http://www.w3.org/2000/svg">
    <path d="M12 0C5.37281 0 0 5.37281 0 12C0 18.6272 5.37281 24 12 24C18.6272 24 24 18.6272 24 12C24 5.37281 18.6272 0 12 0ZM17.8334 8.22375L15.9197 17.3025C15.7734 17.9559 15.3984 18.1134 14.8472 17.8041L11.8734 15.6244L10.4484 16.9969C10.2897 17.1553 10.1559 17.2891 9.84844 17.2891L10.0603 14.2622L15.6375 9.21562C15.8772 9.00375 15.5847 8.88516 15.2697 9.09703L8.33438 13.4494L5.39906 12.4894C4.76063 12.2869 4.74656 11.8641 5.53125 11.5547L17.0484 7.18125C17.5878 6.98813 18.0094 7.29984 17.8334 8.22375Z" fill="currentColor"/>
</svg>
