<?xml version="1.0" encoding="UTF-8"?>
<svg width="24" height="24" viewBox="0 0 24 24" fill="none" xmlns="http://www.w3.org/2000/svg">
    <path d="M12 0C5.37281 0 0 5.37281 0 12C0 18.6272 5.37281 24 12 24C18.6272 24 24 18.6272 24 12C24 5.37281 18.6272 0 12 0ZM17.6686 13.5791C18.3094 14.2025 18.9872 14.7873 19.5591 15.4817C19.8236 15.8059 20.0734 16.1428 20.2616 16.5214C20.5334 17.0574 20.2897 17.6473 19.8094 17.6836H17.3159C16.5937 17.7347 16.0078 17.4398 15.5153 16.9339C15.1219 16.5309 14.7562 16.1003 14.3759 15.6842C14.2219 15.5161 14.0583 15.3577 13.8573 15.2389C13.4578 15.0009 13.1153 15.0761 12.8908 15.4914C12.6609 15.9155 12.6094 16.3834 12.5883 16.8552C12.5583 17.5402 12.3516 17.7159 11.6633 17.6834C10.2422 17.6108 8.91844 17.2584 7.71 16.4458C6.6375 15.7286 5.79844 14.7759 5.05219 13.7334C3.59344 11.7055 2.49281 9.47578 1.49813 7.19438C1.26188 6.65391 1.42406 6.36094 2.01844 6.34688C2.97188 6.32344 3.92531 6.325 4.87875 6.34547C5.23781 6.35297 5.47125 6.55781 5.61188 6.89297C6.11531 8.15109 6.74531 9.34172 7.53844 10.4325C7.77047 10.7494 8.00813 11.0663 8.34469 11.2866C8.71688 11.5275 9.00281 11.4423 9.17859 11.0284C9.29063 10.7644 9.33844 10.4794 9.36188 10.1955C9.43875 9.16969 9.44859 8.14672 9.30797 7.12516C9.22172 6.49797 8.86125 6.09422 8.23547 5.97797C7.89469 5.91516 7.94531 5.78625 8.11266 5.59969C8.40422 5.27156 8.67844 5.06391 9.21891 5.06391H12.0705C12.6633 5.18016 12.7875 5.43281 12.8583 6.03L12.8625 10.3286C12.8578 10.5553 12.9703 11.2384 13.3687 11.3836C13.6922 11.4847 13.9078 11.2244 14.1047 11.0153C14.8978 10.1672 15.4688 9.17109 15.9759 8.13797C16.2028 7.67109 16.3944 7.18313 16.5797 6.69516C16.7203 6.32859 16.9172 6.32203 17.3184 6.32625H20.0437C20.1422 6.32625 20.2422 6.32766 20.3378 6.34453C20.9494 6.44766 21.1069 6.69656 20.9381 7.29422C20.6697 8.22141 20.1094 8.99859 19.5619 9.78141C18.9759 10.6219 18.3403 11.4272 17.7516 12.2678C17.2116 13.0256 17.2583 13.4053 17.6686 13.5791Z" fill="currentColor"/>
</svg>
