<?xml version="1.0" encoding="UTF-8"?>
<svg width="24" height="24" viewBox="0 0 24 24" fill="none" xmlns="http://www.w3.org/2000/svg">
    <path d="M15.07 2H8.93C3.33 2 2 3.33 2 8.93V15.07C2 20.67 3.33 22 8.93 22H15.07C20.67 22 22 20.67 22 15.07V8.93C22 3.33 20.67 2 15.07 2ZM18.15 16.27H16.69C16.14 16.27 15.97 15.82 14.86 14.71C13.86 13.77 13.46 13.67 13.24 13.67C12.93 13.67 12.84 13.76 12.84 14.18V15.77C12.84 16.09 12.72 16.27 11.82 16.27C10.1 16.27 8.19 15.2 6.85 13.37C4.94 10.77 4.35 8.79 4.35 8.43C4.35 8.26 4.43 8.1 4.76 8.1H6.23C6.57 8.1 6.71 8.24 6.86 8.61C7.69 10.77 9.07 12.64 9.58 12.64C9.78 12.64 9.87 12.55 9.87 12.08V9.79C9.82 8.86 9.33 8.79 9.33 8.47C9.33 8.34 9.44 8.1 9.63 8.1H11.97C12.25 8.1 12.35 8.24 12.35 8.59V11.59C12.35 11.87 12.48 11.97 12.57 11.97C12.77 11.97 12.94 11.87 13.31 11.5C14.47 10.22 15.32 8.31 15.32 8.31C15.42 8.12 15.59 7.95 15.93 7.95H17.4C17.81 7.95 17.91 8.15 17.81 8.48C17.55 9.56 15.86 12.01 15.86 12.01C15.72 12.24 15.66 12.35 15.86 12.61C16.01 12.81 16.46 13.19 16.76 13.55C17.33 14.2 17.77 14.75 17.91 15.11C18.06 15.46 17.89 15.67 17.5 15.67L18.15 16.27Z" fill="#597DA3"/>
</svg>
